<?xml version="1.0" encoding="iso-8859-1"?>
<!-- Generator: Adobe Illustrator 19.0.0, SVG Export Plug-In . SVG Version: 6.00 Build 0)  -->
<!-- License: CC0. Made by SVG Repo: https://www.svgrepo.com/svg/250287/money-cash -->
<svg version="1.1" id="Layer_1" xmlns="http://www.w3.org/2000/svg" xmlns:xlink="http://www.w3.org/1999/xlink" x="0px" y="0px"
	 viewBox="0 0 512.002 512.002" style="enable-background:new 0 0 512.002 512.002;" xml:space="preserve">
<rect x="12.39" y="160.644" transform="matrix(-0.9921 0.1251 -0.1251 -0.9921 495.4694 515.7625)" style="fill:#20A088;" width="438.301" height="225.59"/>
<rect x="73.682" y="99.237" style="fill:#32BEA6;" width="438.32" height="225.6"/>
<path style="fill:#FFFFFF;" d="M285.81,254.277v-37.472c-11.696-3.344-20.256-8.384-25.712-15.152s-8.176-14.976-8.176-24.64
	c0-9.776,3.088-17.984,9.248-24.64c6.176-6.64,14.384-10.48,24.64-11.488v-8.864h12.976v8.848
	c9.472,1.136,17.024,4.368,22.624,9.712c5.6,5.344,9.184,12.48,10.736,21.424l-22.624,2.96c-1.376-7.04-4.944-11.808-10.736-14.304
	v34.976c14.304,3.872,24.064,8.896,29.248,15.072c5.184,6.16,7.776,14.08,7.776,23.744c0,10.784-3.264,19.888-9.792,27.28
	c-6.528,7.392-15.6,11.92-27.232,13.6v16.72H285.81v-16.272c-10.32-1.248-18.688-5.104-25.136-11.536s-10.56-15.52-12.352-27.28
	l23.344-2.512c0.944,4.768,2.736,8.88,5.36,12.352C279.666,250.213,282.594,252.725,285.81,254.277z M285.81,160.357
	c-3.52,1.184-6.32,3.216-8.416,6.08c-2.096,2.864-3.136,6.016-3.136,9.472c0,3.152,0.944,6.096,2.864,8.816
	c1.904,2.72,4.8,4.912,8.672,6.576v-30.944H285.81z M298.786,255.525c4.464-0.832,8.112-2.912,10.912-6.224s4.208-7.2,4.208-11.68
	c0-4-1.184-7.44-3.536-10.336c-2.352-2.896-6.208-5.104-11.584-6.656V255.525z"/>
</svg>
